<svg xmlns="http://www.w3.org/2000/svg" viewBox="0 0 113 19" width="113" height="19">
	<style>
		tspan { white-space:pre }
		.shp0 { fill: #ffffff } 
	</style>
	<path id="Bouncy" class="shp0" d="M5.82 14.95L5.82 11.7L9.12 11.7C9.97 11.7 10.75 12.43 10.75 13.33C10.75 14.23 10.02 14.95 9.12 14.95L5.82 14.95ZM5.82 7.58L5.82 4.33L8.2 4.33C9.1 4.33 9.82 5.05 9.82 5.95C9.82 6.85 9.1 7.58 8.2 7.58L5.82 7.58ZM10.15 19C13.12 19 15.65 16.48 15.65 13.5C15.65 11.8 14.8 10.23 13.52 9.2C14.25 8.28 14.72 7.1 14.72 5.83C14.72 2.83 12.17 0.25 9.17 0.25L0.9 0.25L0.9 19L10.15 19ZM18.22 9.65C18.22 14.83 22.4 19 27.57 19C32.75 19 36.94 14.83 36.94 9.65C36.94 4.48 32.75 0.25 27.57 0.25C22.4 0.25 18.22 4.48 18.22 9.65ZM32.05 9.63C32.05 12.08 30.05 14.1 27.57 14.1C25.12 14.1 23.12 12.08 23.12 9.63C23.12 7.15 25.12 5.15 27.57 5.15C30.05 5.15 32.05 7.15 32.05 9.63ZM44.8 0.25L39.85 0.25L39.85 11.6C39.85 15.73 43.12 19 47.25 19C51.32 19 54.65 15.73 54.65 11.6L54.65 0.25L49.7 0.25L49.7 11.53C49.7 12.88 48.6 13.98 47.25 13.98C45.9 13.98 44.8 12.88 44.8 11.53L44.8 0.25ZM74.2 19L74.2 0.25L69.27 0.25L69.27 9.1L60.4 0.25L58.4 0.25L58.4 19L63.32 19L63.32 10.13L72.17 19L74.2 19ZM92.25 2.98C90.55 1.28 88.22 0.25 85.65 0.25C80.47 0.25 76.27 4.45 76.27 9.63C76.27 14.8 80.47 19 85.65 19C88.25 19 90.6 17.93 92.3 16.23L88.8 12.78C88.02 13.58 86.92 14.03 85.65 14.03C83.1 14.03 81.25 12.18 81.25 9.63C81.25 7.08 83.1 5.23 85.65 5.23C86.92 5.23 88.02 5.68 88.8 6.45L92.25 2.98ZM112.72 0.25L107.05 0.25L103.42 6.5L99.82 0.25L94.15 0.25L101 12.1L101 19L105.87 19L105.87 12.1L112.72 0.25Z" />
</svg>